# xmcd
#
# Track frame offsets: 
#        150
#        9807
#        22558
#        32909
#        44081
#        55641
#        67286
#        81280
#        94214
#        106970
#        116307
#        127587
#        138761
#        150762
#        161758
#        172650
#        183768
#        195229
#        205379
#        215887
#        225750
#        238765
#        249649
#        263609
#
# Disc length: 3673 seconds
#
# Revision: 1
# Processed by: cddbd v1.5.2PL0 Copyright (c) Steve Scherf et al.
# Submitted via: ExactAudioCopyFreeDBPlugin 1.0
#
DISCID=250e5718
DTITLE=The Velvelettes - The Motown Anthology
DYEAR=2004
DGENRE=Soul
TTITLE0=Selfish Lover
TTITLE1=Should I Tell Them
TTITLE2=My Foolish Heart (Keeps Hanging on to a Memory)
TTITLE3=Mama Please
TTITLE4=There He Goes
TTITLE5=That's yhe Reason Why
TTITLE6=I Know His Name (Only His Name)
TTITLE7=(The) Monkey (Hokey Pokey)
TTITLE8=That's a Funny Way
TTITLE9=You Can't Get Away
TTITLE10=Stop Beating Around the Bush
TTITLE11=Needle in a Haystack (Stereo Version)
TTITLE12=He Really Was Sayin' Somethin' (Alternate Version)
TTITLE13=Since I've Lost You
TTITLE14=Think of the Times
TTITLE15=Throw a Farewell Kiss
TTITLE16=Long Gone Lover
TTITLE17=Lonely Lonely Girl am I (Alternate Version)
TTITLE18=I'm the Exception to the Rule
TTITLE19=Why Must You Go
TTITLE20=A Bird in the Hand (Is Worth Two in the Bush) (alternate mix)
TTITLE21=Save Me (My Ship of Love is Sinking (alternate version)
TTITLE22=Since You've Been Loving Me (stereo version)
TTITLE23=Let Love Live (A Little Bit Longer) (alternate m2ix)
EXTD=
EXTT0=
EXTT1=
EXTT2=
EXTT3=
EXTT4=
EXTT5=
EXTT6=
EXTT7=
EXTT8=
EXTT9=
EXTT10=
EXTT11=
EXTT12=
EXTT13=
EXTT14=
EXTT15=
EXTT16=
EXTT17=
EXTT18=
EXTT19=
EXTT20=
EXTT21=
EXTT22=
EXTT23=
PLAYORDER=
